<?xml version="1.0" encoding="UTF-8" standalone="no"?>
<!DOCTYPE svg PUBLIC "-//W3C//DTD SVG 1.1//EN"
 "http://www.w3.org/Graphics/SVG/1.1/DTD/svg11.dtd">
<!-- Generated by graphviz version 2.43.0 (0)
 -->
<!-- Title: %3 Pages: 1 -->
<svg width="1968pt" height="1679pt"
 viewBox="0.00 0.00 1968.03 1678.80" xmlns="http://www.w3.org/2000/svg" xmlns:xlink="http://www.w3.org/1999/xlink">
<g id="graph0" class="graph" transform="scale(1 1) rotate(0) translate(28.8 1650)">
<title>%3</title>
<polygon fill="white" stroke="transparent" points="-28.8,28.8 -28.8,-1650 1939.23,-1650 1939.23,28.8 -28.8,28.8"/>
<text text-anchor="middle" x="955.21" y="-1588.4" font-family="Helvetica,sans-Serif" font-size="36.00">rust_analyzer_test</text>
<!-- alloc::alloc::Global -->
<g id="node1" class="node">
<title>alloc::alloc::Global</title>
<polygon fill="#81c169" stroke="black" points="0,-589.27 0,-627.27 137,-627.27 137,-589.27 0,-589.27"/>
<text text-anchor="middle" x="68.5" y="-615.27" font-family="monospace" font-size="10.00">external struct</text>
<polyline fill="none" stroke="black" points="0,-608.27 137,-608.27 "/>
<text text-anchor="middle" x="68.5" y="-596.27" font-family="monospace" font-size="10.00">alloc::alloc::Global</text>
</g>
<!-- alloc::string::String -->
<g id="node2" class="node">
<title>alloc::string::String</title>
<polygon fill="#81c169" stroke="black" points="1502.4,-752 1502.4,-790 1645.4,-790 1645.4,-752 1502.4,-752"/>
<text text-anchor="middle" x="1573.9" y="-778" font-family="monospace" font-size="10.00">external struct</text>
<polyline fill="none" stroke="black" points="1502.4,-771 1645.4,-771 "/>
<text text-anchor="middle" x="1573.9" y="-759" font-family="monospace" font-size="10.00">alloc::string::String</text>
</g>
<!-- alloc::vec::Vec -->
<g id="node3" class="node">
<title>alloc::vec::Vec</title>
<polygon fill="#81c169" stroke="black" points="72.97,-328.25 72.97,-366.25 179.97,-366.25 179.97,-328.25 72.97,-328.25"/>
<text text-anchor="middle" x="126.47" y="-354.25" font-family="monospace" font-size="10.00">external struct</text>
<polyline fill="none" stroke="black" points="72.97,-347.25 179.97,-347.25 "/>
<text text-anchor="middle" x="126.47" y="-335.25" font-family="monospace" font-size="10.00">alloc::vec::Vec</text>
</g>
<!-- bool -->
<g id="node4" class="node">
<title>bool</title>
<polygon fill="#81c169" stroke="black" points="76.2,-940.01 76.2,-978.01 189.2,-978.01 189.2,-940.01 76.2,-940.01"/>
<text text-anchor="middle" x="132.7" y="-966.01" font-family="monospace" font-size="10.00">external builtin</text>
<polyline fill="none" stroke="black" points="76.2,-959.01 189.2,-959.01 "/>
<text text-anchor="middle" x="132.7" y="-947.01" font-family="monospace" font-size="10.00">bool</text>
</g>
<!-- i32 -->
<g id="node5" class="node">
<title>i32</title>
<polygon fill="#81c169" stroke="black" points="763.41,-422.51 763.41,-460.51 876.41,-460.51 876.41,-422.51 763.41,-422.51"/>
<text text-anchor="middle" x="819.91" y="-448.51" font-family="monospace" font-size="10.00">external builtin</text>
<polyline fill="none" stroke="black" points="763.41,-441.51 876.41,-441.51 "/>
<text text-anchor="middle" x="819.91" y="-429.51" font-family="monospace" font-size="10.00">i32</text>
</g>
<!-- rust_analyzer_test -->
<g id="node6" class="node">
<title>rust_analyzer_test</title>
<polygon fill="#5397c8" stroke="black" points="1294.12,-311.06 1294.12,-349.06 1419.12,-349.06 1419.12,-311.06 1294.12,-311.06"/>
<text text-anchor="middle" x="1356.62" y="-337.06" font-family="monospace" font-size="10.00">crate</text>
<polyline fill="none" stroke="black" points="1294.12,-330.06 1419.12,-330.06 "/>
<text text-anchor="middle" x="1356.62" y="-318.06" font-family="monospace" font-size="10.00">rust_analyzer_test</text>
</g>
<!-- rust_analyzer_test::Data -->
<g id="node7" class="node">
<title>rust_analyzer_test::Data</title>
<polygon fill="#81c169" stroke="black" points="1477.78,-477.06 1477.78,-515.06 1638.78,-515.06 1638.78,-477.06 1477.78,-477.06"/>
<text text-anchor="middle" x="1558.28" y="-503.06" font-family="monospace" font-size="10.00">pub struct</text>
<polyline fill="none" stroke="black" points="1477.78,-496.06 1638.78,-496.06 "/>
<text text-anchor="middle" x="1558.28" y="-484.06" font-family="monospace" font-size="10.00">rust_analyzer_test::Data</text>
</g>
<!-- rust_analyzer_test&#45;&gt;rust_analyzer_test::Data -->
<g id="edge1" class="edge">
<title>rust_analyzer_test&#45;&gt;rust_analyzer_test::Data</title>
<path fill="none" stroke="#000000" d="M1379.76,-349.11C1416.05,-378.98 1486.43,-436.92 1527.14,-470.43"/>
<polygon fill="#000000" stroke="#000000" points="1525.16,-473.34 1535.11,-476.99 1529.61,-467.93 1525.16,-473.34"/>
<text text-anchor="middle" x="1440.95" y="-412.77" font-family="monospace" font-size="10.00">owns</text>
</g>
<!-- rust_analyzer_test::calculate -->
<g id="node10" class="node">
<title>rust_analyzer_test::calculate</title>
<polygon fill="#81c169" stroke="black" points="1020.78,-108.72 1020.78,-146.72 1211.78,-146.72 1211.78,-108.72 1020.78,-108.72"/>
<text text-anchor="middle" x="1116.28" y="-134.72" font-family="monospace" font-size="10.00">pub fn</text>
<polyline fill="none" stroke="black" points="1020.78,-127.72 1211.78,-127.72 "/>
<text text-anchor="middle" x="1116.28" y="-115.72" font-family="monospace" font-size="10.00">rust_analyzer_test::calculate</text>
</g>
<!-- rust_analyzer_test&#45;&gt;rust_analyzer_test::calculate -->
<g id="edge2" class="edge">
<title>rust_analyzer_test&#45;&gt;rust_analyzer_test::calculate</title>
<path fill="none" stroke="#000000" d="M1334.01,-311.03C1290.62,-274.5 1195.65,-194.54 1146.73,-153.36"/>
<polygon fill="#000000" stroke="#000000" points="1148.91,-150.62 1139.01,-146.86 1144.4,-155.97 1148.91,-150.62"/>
<text text-anchor="middle" x="1227.87" y="-235.19" font-family="monospace" font-size="10.00">owns</text>
</g>
<!-- rust_analyzer_test::helper -->
<g id="node11" class="node">
<title>rust_analyzer_test::helper</title>
<polygon fill="#81c169" stroke="black" points="910.83,-709.05 910.83,-747.05 1083.83,-747.05 1083.83,-709.05 910.83,-709.05"/>
<text text-anchor="middle" x="997.33" y="-735.05" font-family="monospace" font-size="10.00">pub mod</text>
<polyline fill="none" stroke="black" points="910.83,-728.05 1083.83,-728.05 "/>
<text text-anchor="middle" x="997.33" y="-716.05" font-family="monospace" font-size="10.00">rust_analyzer_test::helper</text>
</g>
<!-- rust_analyzer_test&#45;&gt;rust_analyzer_test::helper -->
<g id="edge3" class="edge">
<title>rust_analyzer_test&#45;&gt;rust_analyzer_test::helper</title>
<path fill="none" stroke="#000000" d="M1339.29,-349.26C1280.6,-414.28 1089.18,-626.32 1021.39,-701.4"/>
<polygon fill="#000000" stroke="#000000" points="1018.59,-699.28 1014.49,-709.05 1023.79,-703.97 1018.59,-699.28"/>
<text text-anchor="middle" x="1167.84" y="-528.33" font-family="monospace" font-size="10.00">owns</text>
</g>
<!-- rust_analyzer_test::Data&#45;&gt;alloc::string::String -->
<g id="edge4" class="edge">
<title>rust_analyzer_test::Data&#45;&gt;alloc::string::String</title>
<path fill="none" stroke="#7f7f7f" stroke-dasharray="5,2" d="M1559.38,-515.4C1562.07,-562.82 1569.02,-685.15 1572.23,-741.62"/>
<polygon fill="#7f7f7f" stroke="#7f7f7f" points="1568.74,-741.9 1572.8,-751.69 1575.73,-741.5 1568.74,-741.9"/>
<text text-anchor="middle" x="1553.3" y="-631.51" font-family="monospace" font-size="10.00">uses</text>
</g>
<!-- rust_analyzer_test::Data::fmt -->
<g id="node8" class="node">
<title>rust_analyzer_test::Data::fmt</title>
<polygon fill="#f8c04c" stroke="black" points="1145.51,-579.74 1145.51,-617.74 1336.51,-617.74 1336.51,-579.74 1145.51,-579.74"/>
<text text-anchor="middle" x="1241.01" y="-605.74" font-family="monospace" font-size="10.00">pub(crate) fn</text>
<polyline fill="none" stroke="black" points="1145.51,-598.74 1336.51,-598.74 "/>
<text text-anchor="middle" x="1241.01" y="-586.74" font-family="monospace" font-size="10.00">rust_analyzer_test::Data::fmt</text>
</g>
<!-- rust_analyzer_test::Data&#45;&gt;rust_analyzer_test::Data::fmt -->
<g id="edge5" class="edge">
<title>rust_analyzer_test::Data&#45;&gt;rust_analyzer_test::Data::fmt</title>
<path fill="none" stroke="#000000" d="M1480.48,-515.08C1422.37,-532.45 1344.5,-557.87 1293.57,-576.23"/>
<polygon fill="#000000" stroke="#000000" points="1292.26,-572.98 1284.06,-579.69 1294.66,-579.56 1292.26,-572.98"/>
<text text-anchor="middle" x="1374.52" y="-548.66" font-family="monospace" font-size="10.00">owns</text>
</g>
<!-- rust_analyzer_test::Data::new -->
<g id="node9" class="node">
<title>rust_analyzer_test::Data::new</title>
<polygon fill="#81c169" stroke="black" points="1093.82,-674.37 1093.82,-712.37 1284.82,-712.37 1284.82,-674.37 1093.82,-674.37"/>
<text text-anchor="middle" x="1189.32" y="-700.37" font-family="monospace" font-size="10.00">pub fn</text>
<polyline fill="none" stroke="black" points="1093.82,-693.37 1284.82,-693.37 "/>
<text text-anchor="middle" x="1189.32" y="-681.37" font-family="monospace" font-size="10.00">rust_analyzer_test::Data::new</text>
</g>
<!-- rust_analyzer_test::Data&#45;&gt;rust_analyzer_test::Data::new -->
<g id="edge6" class="edge">
<title>rust_analyzer_test::Data&#45;&gt;rust_analyzer_test::Data::new</title>
<path fill="none" stroke="#000000" d="M1513.1,-515.09C1439.08,-551.24 1293.52,-629.16 1225.68,-669.03"/>
<polygon fill="#000000" stroke="#000000" points="1223.85,-666.05 1217.03,-674.16 1227.42,-672.07 1223.85,-666.05"/>
<text text-anchor="middle" x="1356.89" y="-595.06" font-family="monospace" font-size="10.00">owns</text>
</g>
<!-- rust_analyzer_test::Data::fmt&#45;&gt;alloc::string::String -->
<g id="edge7" class="edge">
<title>rust_analyzer_test::Data::fmt&#45;&gt;alloc::string::String</title>
<path fill="none" stroke="#7f7f7f" stroke-dasharray="5,2" d="M1277.91,-617.83C1339.1,-649.5 1461.44,-712.8 1528.07,-747.28"/>
<polygon fill="#7f7f7f" stroke="#7f7f7f" points="1526.6,-750.46 1537.09,-751.95 1529.82,-744.25 1526.6,-750.46"/>
<text text-anchor="middle" x="1390.49" y="-685.56" font-family="monospace" font-size="10.00">uses</text>
</g>
<!-- rust_analyzer_test::Data::fmt&#45;&gt;i32 -->
<g id="edge8" class="edge">
<title>rust_analyzer_test::Data::fmt&#45;&gt;i32</title>
<path fill="none" stroke="#7f7f7f" stroke-dasharray="5,2" d="M1189.8,-579.61C1111.89,-550.53 963.9,-495.27 880.67,-464.2"/>
<polygon fill="#7f7f7f" stroke="#7f7f7f" points="881.69,-460.84 871.1,-460.62 879.24,-467.4 881.69,-460.84"/>
<text text-anchor="middle" x="1022.74" y="-524.91" font-family="monospace" font-size="10.00">uses</text>
</g>
<!-- rust_analyzer_test::Data::fmt&#45;&gt;rust_analyzer_test::Data -->
<g id="edge9" class="edge">
<title>rust_analyzer_test::Data::fmt&#45;&gt;rust_analyzer_test::Data</title>
<path fill="none" stroke="#7f7f7f" stroke-dasharray="5,2" d="M1318.81,-579.72C1376.93,-562.35 1454.79,-536.93 1505.73,-518.57"/>
<polygon fill="#7f7f7f" stroke="#7f7f7f" points="1507.03,-521.82 1515.23,-515.11 1504.64,-515.24 1507.03,-521.82"/>
<text text-anchor="middle" x="1399.77" y="-552.14" font-family="monospace" font-size="10.00">uses</text>
</g>
<!-- str -->
<g id="node23" class="node">
<title>str</title>
<polygon fill="#81c169" stroke="black" points="1310.02,-969.08 1310.02,-1007.08 1423.02,-1007.08 1423.02,-969.08 1310.02,-969.08"/>
<text text-anchor="middle" x="1366.52" y="-995.08" font-family="monospace" font-size="10.00">external builtin</text>
<polyline fill="none" stroke="black" points="1310.02,-988.08 1423.02,-988.08 "/>
<text text-anchor="middle" x="1366.52" y="-976.08" font-family="monospace" font-size="10.00">str</text>
</g>
<!-- rust_analyzer_test::Data::fmt&#45;&gt;str -->
<g id="edge10" class="edge">
<title>rust_analyzer_test::Data::fmt&#45;&gt;str</title>
<path fill="none" stroke="#7f7f7f" stroke-dasharray="5,2" d="M1247.15,-617.78C1267.5,-680.92 1332.85,-883.65 1357.23,-959.28"/>
<polygon fill="#7f7f7f" stroke="#7f7f7f" points="1353.99,-960.63 1360.39,-969.08 1360.66,-958.49 1353.99,-960.63"/>
<text text-anchor="middle" x="1289.69" y="-791.53" font-family="monospace" font-size="10.00">uses</text>
</g>
<!-- rust_analyzer_test::Data::new&#45;&gt;alloc::string::String -->
<g id="edge11" class="edge">
<title>rust_analyzer_test::Data::new&#45;&gt;alloc::string::String</title>
<path fill="none" stroke="#7f7f7f" stroke-dasharray="5,2" d="M1283.89,-712.46C1347.83,-725.37 1431.4,-742.23 1492.4,-754.55"/>
<polygon fill="#7f7f7f" stroke="#7f7f7f" points="1491.87,-758.01 1502.37,-756.56 1493.26,-751.15 1491.87,-758.01"/>
<text text-anchor="middle" x="1375.65" y="-736.5" font-family="monospace" font-size="10.00">uses</text>
</g>
<!-- rust_analyzer_test::Data::new&#45;&gt;i32 -->
<g id="edge12" class="edge">
<title>rust_analyzer_test::Data::new&#45;&gt;i32</title>
<path fill="none" stroke="#7f7f7f" stroke-dasharray="5,2" d="M1161.25,-674.23C1095.24,-629.23 930.17,-516.69 856.46,-466.43"/>
<polygon fill="#7f7f7f" stroke="#7f7f7f" points="858.17,-463.36 847.94,-460.62 854.23,-469.15 858.17,-463.36"/>
<text text-anchor="middle" x="996.36" y="-573.33" font-family="monospace" font-size="10.00">uses</text>
</g>
<!-- rust_analyzer_test::Data::new&#45;&gt;rust_analyzer_test::Data -->
<g id="edge13" class="edge">
<title>rust_analyzer_test::Data::new&#45;&gt;rust_analyzer_test::Data</title>
<path fill="none" stroke="#7f7f7f" stroke-dasharray="5,2" d="M1234.5,-674.34C1308.52,-638.2 1454.09,-560.28 1521.92,-520.41"/>
<polygon fill="#7f7f7f" stroke="#7f7f7f" points="1523.76,-523.39 1530.58,-515.28 1520.19,-517.37 1523.76,-523.39"/>
<text text-anchor="middle" x="1390.71" y="-600.38" font-family="monospace" font-size="10.00">uses</text>
</g>
<!-- rust_analyzer_test::Data::new&#45;&gt;str -->
<g id="edge14" class="edge">
<title>rust_analyzer_test::Data::new&#45;&gt;str</title>
<path fill="none" stroke="#7f7f7f" stroke-dasharray="5,2" d="M1200.95,-712.71C1231.5,-763.52 1314.13,-900.95 1349.78,-960.24"/>
<polygon fill="#7f7f7f" stroke="#7f7f7f" points="1346.93,-962.29 1355.08,-969.06 1352.93,-958.68 1346.93,-962.29"/>
<text text-anchor="middle" x="1262.86" y="-839.47" font-family="monospace" font-size="10.00">uses</text>
</g>
<!-- rust_analyzer_test::calculate&#45;&gt;i32 -->
<g id="edge15" class="edge">
<title>rust_analyzer_test::calculate&#45;&gt;i32</title>
<path fill="none" stroke="#7f7f7f" stroke-dasharray="5,2" d="M1098.19,-146.88C1047.45,-200.6 903.7,-352.8 845.17,-414.77"/>
<polygon fill="#7f7f7f" stroke="#7f7f7f" points="842.47,-412.53 838.15,-422.21 847.56,-417.34 842.47,-412.53"/>
<text text-anchor="middle" x="959.18" y="-283.82" font-family="monospace" font-size="10.00">uses</text>
</g>
<!-- rust_analyzer_test::helper::data -->
<g id="node12" class="node">
<title>rust_analyzer_test::helper::data</title>
<polygon fill="#81c169" stroke="black" points="477.2,-885.29 477.2,-923.29 686.2,-923.29 686.2,-885.29 477.2,-885.29"/>
<text text-anchor="middle" x="581.7" y="-911.29" font-family="monospace" font-size="10.00">pub mod</text>
<polyline fill="none" stroke="black" points="477.2,-904.29 686.2,-904.29 "/>
<text text-anchor="middle" x="581.7" y="-892.29" font-family="monospace" font-size="10.00">rust_analyzer_test::helper::data</text>
</g>
<!-- rust_analyzer_test::helper&#45;&gt;rust_analyzer_test::helper::data -->
<g id="edge16" class="edge">
<title>rust_analyzer_test::helper&#45;&gt;rust_analyzer_test::helper::data</title>
<path fill="none" stroke="#000000" d="M952.46,-747.08C875.55,-779.69 718.86,-846.13 635.95,-881.29"/>
<polygon fill="#000000" stroke="#000000" points="634.55,-878.08 626.71,-885.21 637.28,-884.53 634.55,-878.08"/>
<text text-anchor="middle" x="781.71" y="-817.18" font-family="monospace" font-size="10.00">owns</text>
</g>
<!-- rust_analyzer_test::helper::math -->
<g id="node16" class="node">
<title>rust_analyzer_test::helper::math</title>
<polygon fill="#81c169" stroke="black" points="855.38,-259.43 855.38,-297.43 1064.38,-297.43 1064.38,-259.43 855.38,-259.43"/>
<text text-anchor="middle" x="959.88" y="-285.43" font-family="monospace" font-size="10.00">pub mod</text>
<polyline fill="none" stroke="black" points="855.38,-278.43 1064.38,-278.43 "/>
<text text-anchor="middle" x="959.88" y="-266.43" font-family="monospace" font-size="10.00">rust_analyzer_test::helper::math</text>
</g>
<!-- rust_analyzer_test::helper&#45;&gt;rust_analyzer_test::helper::math -->
<g id="edge17" class="edge">
<title>rust_analyzer_test::helper&#45;&gt;rust_analyzer_test::helper::math</title>
<path fill="none" stroke="#000000" d="M995.75,-709.02C989.88,-638.57 969.37,-392.32 962.3,-307.45"/>
<polygon fill="#000000" stroke="#000000" points="965.79,-307.14 961.47,-297.47 958.81,-307.72 965.79,-307.14"/>
<text text-anchor="middle" x="966.52" y="-511.23" font-family="monospace" font-size="10.00">owns</text>
</g>
<!-- rust_analyzer_test::helper::utils -->
<g id="node20" class="node">
<title>rust_analyzer_test::helper::utils</title>
<polygon fill="#81c169" stroke="black" points="1055.88,-1131.42 1055.88,-1169.42 1270.88,-1169.42 1270.88,-1131.42 1055.88,-1131.42"/>
<text text-anchor="middle" x="1163.38" y="-1157.42" font-family="monospace" font-size="10.00">pub mod</text>
<polyline fill="none" stroke="black" points="1055.88,-1150.42 1270.88,-1150.42 "/>
<text text-anchor="middle" x="1163.38" y="-1138.42" font-family="monospace" font-size="10.00">rust_analyzer_test::helper::utils</text>
</g>
<!-- rust_analyzer_test::helper&#45;&gt;rust_analyzer_test::helper::utils -->
<g id="edge18" class="edge">
<title>rust_analyzer_test::helper&#45;&gt;rust_analyzer_test::helper::utils</title>
<path fill="none" stroke="#000000" d="M1004.9,-747.3C1031.43,-814.78 1120.32,-1040.89 1152.03,-1121.54"/>
<polygon fill="#000000" stroke="#000000" points="1148.86,-1123.04 1155.77,-1131.06 1155.37,-1120.48 1148.86,-1123.04"/>
<text text-anchor="middle" x="1065.96" y="-937.42" font-family="monospace" font-size="10.00">owns</text>
</g>
<!-- rust_analyzer_test::helper::data::analyze_data -->
<g id="node13" class="node">
<title>rust_analyzer_test::helper::data::analyze_data</title>
<polygon fill="#81c169" stroke="black" points="545.48,-708.13 545.48,-746.13 838.48,-746.13 838.48,-708.13 545.48,-708.13"/>
<text text-anchor="middle" x="691.98" y="-734.13" font-family="monospace" font-size="10.00">pub fn</text>
<polyline fill="none" stroke="black" points="545.48,-727.13 838.48,-727.13 "/>
<text text-anchor="middle" x="691.98" y="-715.13" font-family="monospace" font-size="10.00">rust_analyzer_test::helper::data::analyze_data</text>
</g>
<!-- rust_analyzer_test::helper::data&#45;&gt;rust_analyzer_test::helper::data::analyze_data -->
<g id="edge19" class="edge">
<title>rust_analyzer_test::helper::data&#45;&gt;rust_analyzer_test::helper::data::analyze_data</title>
<path fill="none" stroke="#000000" d="M593.72,-884.99C613.32,-853.49 652.27,-790.92 674.8,-754.73"/>
<polygon fill="#000000" stroke="#000000" points="677.84,-756.47 680.15,-746.13 671.9,-752.77 677.84,-756.47"/>
<text text-anchor="middle" x="621.76" y="-822.86" font-family="monospace" font-size="10.00">owns</text>
</g>
<!-- rust_analyzer_test::helper::data::filter_data -->
<g id="node14" class="node">
<title>rust_analyzer_test::helper::data::filter_data</title>
<polygon fill="#81c169" stroke="black" points="256.62,-629.1 256.62,-667.1 543.62,-667.1 543.62,-629.1 256.62,-629.1"/>
<text text-anchor="middle" x="400.12" y="-655.1" font-family="monospace" font-size="10.00">pub fn</text>
<polyline fill="none" stroke="black" points="256.62,-648.1 543.62,-648.1 "/>
<text text-anchor="middle" x="400.12" y="-636.1" font-family="monospace" font-size="10.00">rust_analyzer_test::helper::data::filter_data</text>
</g>
<!-- rust_analyzer_test::helper::data&#45;&gt;rust_analyzer_test::helper::data::filter_data -->
<g id="edge20" class="edge">
<title>rust_analyzer_test::helper::data&#45;&gt;rust_analyzer_test::helper::data::filter_data</title>
<path fill="none" stroke="#000000" d="M568.06,-885.03C536.17,-840.04 456.67,-727.89 419.66,-675.67"/>
<polygon fill="#000000" stroke="#000000" points="422.32,-673.36 413.68,-667.23 416.6,-677.41 422.32,-673.36"/>
<text text-anchor="middle" x="481.36" y="-783.35" font-family="monospace" font-size="10.00">owns</text>
</g>
<!-- rust_analyzer_test::helper::data::transform_data -->
<g id="node15" class="node">
<title>rust_analyzer_test::helper::data::transform_data</title>
<polygon fill="#81c169" stroke="black" points="292.42,-475.31 292.42,-513.31 597.42,-513.31 597.42,-475.31 292.42,-475.31"/>
<text text-anchor="middle" x="444.92" y="-501.31" font-family="monospace" font-size="10.00">pub fn</text>
<polyline fill="none" stroke="black" points="292.42,-494.31 597.42,-494.31 "/>
<text text-anchor="middle" x="444.92" y="-482.31" font-family="monospace" font-size="10.00">rust_analyzer_test::helper::data::transform_data</text>
</g>
<!-- rust_analyzer_test::helper::data&#45;&gt;rust_analyzer_test::helper::data::transform_data -->
<g id="edge21" class="edge">
<title>rust_analyzer_test::helper::data&#45;&gt;rust_analyzer_test::helper::data::transform_data</title>
<path fill="none" stroke="#000000" d="M575.29,-885.07C553.3,-819.16 480.88,-602.09 454.58,-523.25"/>
<polygon fill="#000000" stroke="#000000" points="457.81,-521.87 451.32,-513.49 451.17,-524.09 457.81,-521.87"/>
<text text-anchor="middle" x="502.43" y="-707.16" font-family="monospace" font-size="10.00">owns</text>
</g>
<!-- rust_analyzer_test::helper::data::analyze_data&#45;&gt;i32 -->
<g id="edge22" class="edge">
<title>rust_analyzer_test::helper::data::analyze_data&#45;&gt;i32</title>
<path fill="none" stroke="#7f7f7f" stroke-dasharray="5,2" d="M700.58,-707.95C722.61,-658.76 781.2,-527.95 807.19,-469.92"/>
<polygon fill="#7f7f7f" stroke="#7f7f7f" points="810.46,-471.17 811.36,-460.61 804.08,-468.31 810.46,-471.17"/>
<text text-anchor="middle" x="741.38" y="-591.93" font-family="monospace" font-size="10.00">uses</text>
</g>
<!-- rust_analyzer_test::helper::data::filter_data&#45;&gt;alloc::alloc::Global -->
<g id="edge23" class="edge">
<title>rust_analyzer_test::helper::data::filter_data&#45;&gt;alloc::alloc::Global</title>
<path fill="none" stroke="#7f7f7f" stroke-dasharray="5,2" d="M256.59,-630.86C219,-626.34 179.84,-621.64 147.06,-617.7"/>
<polygon fill="#7f7f7f" stroke="#7f7f7f" points="147.44,-614.22 137.09,-616.51 146.6,-621.17 147.44,-614.22"/>
<text text-anchor="middle" x="189.33" y="-627.28" font-family="monospace" font-size="10.00">uses</text>
</g>
<!-- rust_analyzer_test::helper::data::filter_data&#45;&gt;alloc::vec::Vec -->
<g id="edge24" class="edge">
<title>rust_analyzer_test::helper::data::filter_data&#45;&gt;alloc::vec::Vec</title>
<path fill="none" stroke="#7f7f7f" stroke-dasharray="5,2" d="M382.58,-628.82C335.28,-576.82 204.97,-433.56 150.7,-373.88"/>
<polygon fill="#7f7f7f" stroke="#7f7f7f" points="153.18,-371.41 143.86,-366.37 148,-376.12 153.18,-371.41"/>
<text text-anchor="middle" x="254.14" y="-504.35" font-family="monospace" font-size="10.00">uses</text>
</g>
<!-- rust_analyzer_test::helper::data::filter_data&#45;&gt;bool -->
<g id="edge25" class="edge">
<title>rust_analyzer_test::helper::data::filter_data&#45;&gt;bool</title>
<path fill="none" stroke="#7f7f7f" stroke-dasharray="5,2" d="M383.39,-667.55C337.32,-721.11 208.51,-870.87 155.72,-932.25"/>
<polygon fill="#7f7f7f" stroke="#7f7f7f" points="152.95,-930.11 149.08,-939.97 158.25,-934.67 152.95,-930.11"/>
<text text-anchor="middle" x="257.05" y="-802.9" font-family="monospace" font-size="10.00">uses</text>
</g>
<!-- rust_analyzer_test::helper::data::filter_data&#45;&gt;i32 -->
<g id="edge26" class="edge">
<title>rust_analyzer_test::helper::data::filter_data&#45;&gt;i32</title>
<path fill="none" stroke="#7f7f7f" stroke-dasharray="5,2" d="M438.86,-629.03C515.94,-591.1 688.32,-506.27 772.21,-464.99"/>
<polygon fill="#7f7f7f" stroke="#7f7f7f" points="773.84,-468.09 781.27,-460.53 770.75,-461.81 773.84,-468.09"/>
<text text-anchor="middle" x="593.04" y="-550.01" font-family="monospace" font-size="10.00">uses</text>
</g>
<!-- rust_analyzer_test::helper::data::transform_data&#45;&gt;alloc::alloc::Global -->
<g id="edge27" class="edge">
<title>rust_analyzer_test::helper::data::transform_data&#45;&gt;alloc::alloc::Global</title>
<path fill="none" stroke="#7f7f7f" stroke-dasharray="5,2" d="M381.92,-513.38C315.46,-533.5 210.87,-565.17 141.01,-586.32"/>
<polygon fill="#7f7f7f" stroke="#7f7f7f" points="139.95,-582.98 131.4,-589.23 141.98,-589.68 139.95,-582.98"/>
<text text-anchor="middle" x="248.97" y="-552.85" font-family="monospace" font-size="10.00">uses</text>
</g>
<!-- rust_analyzer_test::helper::data::transform_data&#45;&gt;alloc::vec::Vec -->
<g id="edge28" class="edge">
<title>rust_analyzer_test::helper::data::transform_data&#45;&gt;alloc::vec::Vec</title>
<path fill="none" stroke="#7f7f7f" stroke-dasharray="5,2" d="M403.62,-475.23C345.51,-448.4 239.74,-399.55 177.01,-370.59"/>
<polygon fill="#7f7f7f" stroke="#7f7f7f" points="178.25,-367.3 167.7,-366.29 175.31,-373.66 178.25,-367.3"/>
<text text-anchor="middle" x="277.81" y="-425.91" font-family="monospace" font-size="10.00">uses</text>
</g>
<!-- rust_analyzer_test::helper::data::transform_data&#45;&gt;i32 -->
<g id="edge29" class="edge">
<title>rust_analyzer_test::helper::data::transform_data&#45;&gt;i32</title>
<path fill="none" stroke="#7f7f7f" stroke-dasharray="5,2" d="M580.04,-475.29C638.82,-467.01 705.07,-457.68 753.03,-450.93"/>
<polygon fill="#7f7f7f" stroke="#7f7f7f" points="753.56,-454.39 762.98,-449.53 752.59,-447.46 753.56,-454.39"/>
<text text-anchor="middle" x="654.03" y="-466.11" font-family="monospace" font-size="10.00">uses</text>
</g>
<!-- rust_analyzer_test::helper::math::add -->
<g id="node17" class="node">
<title>rust_analyzer_test::helper::math::add</title>
<polygon fill="#81c169" stroke="black" points="779.42,-0.5 779.42,-38.5 1018.42,-38.5 1018.42,-0.5 779.42,-0.5"/>
<text text-anchor="middle" x="898.92" y="-26.5" font-family="monospace" font-size="10.00">pub fn</text>
<polyline fill="none" stroke="black" points="779.42,-19.5 1018.42,-19.5 "/>
<text text-anchor="middle" x="898.92" y="-7.5" font-family="monospace" font-size="10.00">rust_analyzer_test::helper::math::add</text>
</g>
<!-- rust_analyzer_test::helper::math&#45;&gt;rust_analyzer_test::helper::math::add -->
<g id="edge30" class="edge">
<title>rust_analyzer_test::helper::math&#45;&gt;rust_analyzer_test::helper::math::add</title>
<path fill="none" stroke="#000000" d="M955.4,-259.39C944.83,-214.5 918.3,-101.81 905.73,-48.42"/>
<polygon fill="#000000" stroke="#000000" points="909.11,-47.5 903.41,-38.57 902.3,-49.1 909.11,-47.5"/>
<text text-anchor="middle" x="918.07" y="-156.9" font-family="monospace" font-size="10.00">owns</text>
</g>
<!-- rust_analyzer_test::helper::math::multiply -->
<g id="node18" class="node">
<title>rust_analyzer_test::helper::math::multiply</title>
<polygon fill="#81c169" stroke="black" points="485.48,-169.17 485.48,-207.17 754.48,-207.17 754.48,-169.17 485.48,-169.17"/>
<text text-anchor="middle" x="619.98" y="-195.17" font-family="monospace" font-size="10.00">pub fn</text>
<polyline fill="none" stroke="black" points="485.48,-188.17 754.48,-188.17 "/>
<text text-anchor="middle" x="619.98" y="-176.17" font-family="monospace" font-size="10.00">rust_analyzer_test::helper::math::multiply</text>
</g>
<!-- rust_analyzer_test::helper::math&#45;&gt;rust_analyzer_test::helper::math::multiply -->
<g id="edge31" class="edge">
<title>rust_analyzer_test::helper::math&#45;&gt;rust_analyzer_test::helper::math::multiply</title>
<path fill="none" stroke="#000000" d="M888.21,-259.4C833.53,-244.88 758.16,-224.86 701.24,-209.75"/>
<polygon fill="#000000" stroke="#000000" points="702.11,-206.36 691.55,-207.18 700.32,-213.13 702.11,-206.36"/>
<text text-anchor="middle" x="782.23" y="-237.57" font-family="monospace" font-size="10.00">owns</text>
</g>
<!-- rust_analyzer_test::helper::math::square -->
<g id="node19" class="node">
<title>rust_analyzer_test::helper::math::square</title>
<polygon fill="#81c169" stroke="black" points="597.5,-47.5 597.5,-85.5 854.5,-85.5 854.5,-47.5 597.5,-47.5"/>
<text text-anchor="middle" x="726" y="-73.5" font-family="monospace" font-size="10.00">pub fn</text>
<polyline fill="none" stroke="black" points="597.5,-66.5 854.5,-66.5 "/>
<text text-anchor="middle" x="726" y="-54.5" font-family="monospace" font-size="10.00">rust_analyzer_test::helper::math::square</text>
</g>
<!-- rust_analyzer_test::helper::math&#45;&gt;rust_analyzer_test::helper::math::square -->
<g id="edge32" class="edge">
<title>rust_analyzer_test::helper::math&#45;&gt;rust_analyzer_test::helper::math::square</title>
<path fill="none" stroke="#000000" d="M938.71,-259.25C896.64,-221.13 802.46,-135.78 754.8,-92.6"/>
<polygon fill="#000000" stroke="#000000" points="757.05,-89.92 747.29,-85.79 752.35,-95.1 757.05,-89.92"/>
<text text-anchor="middle" x="834.26" y="-178.92" font-family="monospace" font-size="10.00">owns</text>
</g>
<!-- rust_analyzer_test::helper::math::add&#45;&gt;i32 -->
<g id="edge33" class="edge">
<title>rust_analyzer_test::helper::math::add&#45;&gt;i32</title>
<path fill="none" stroke="#7f7f7f" stroke-dasharray="5,2" d="M895.32,-38.73C882.73,-106.01 840.58,-331.15 825.41,-412.16"/>
<polygon fill="#7f7f7f" stroke="#7f7f7f" points="821.93,-411.7 823.53,-422.17 828.81,-412.98 821.93,-411.7"/>
<text text-anchor="middle" x="847.87" y="-228.44" font-family="monospace" font-size="10.00">uses</text>
</g>
<!-- rust_analyzer_test::helper::math::multiply&#45;&gt;i32 -->
<g id="edge34" class="edge">
<title>rust_analyzer_test::helper::math::multiply&#45;&gt;i32</title>
<path fill="none" stroke="#7f7f7f" stroke-dasharray="5,2" d="M635.01,-207.21C670.11,-251.69 757.58,-362.52 798.35,-414.19"/>
<polygon fill="#7f7f7f" stroke="#7f7f7f" points="795.77,-416.57 804.71,-422.25 801.26,-412.23 795.77,-416.57"/>
<text text-anchor="middle" x="704.18" y="-313.7" font-family="monospace" font-size="10.00">uses</text>
</g>
<!-- rust_analyzer_test::helper::math::square&#45;&gt;i32 -->
<g id="edge35" class="edge">
<title>rust_analyzer_test::helper::math::square&#45;&gt;i32</title>
<path fill="none" stroke="#7f7f7f" stroke-dasharray="5,2" d="M730.79,-85.62C746.14,-146.93 794.23,-338.96 812.64,-412.48"/>
<polygon fill="#7f7f7f" stroke="#7f7f7f" points="809.31,-413.59 815.14,-422.44 816.1,-411.89 809.31,-413.59"/>
<text text-anchor="middle" x="759.21" y="-252.05" font-family="monospace" font-size="10.00">uses</text>
</g>
<!-- rust_analyzer_test::helper::utils::format_string -->
<g id="node21" class="node">
<title>rust_analyzer_test::helper::utils::format_string</title>
<polygon fill="#81c169" stroke="black" points="1446.66,-1126.55 1446.66,-1164.55 1751.66,-1164.55 1751.66,-1126.55 1446.66,-1126.55"/>
<text text-anchor="middle" x="1599.16" y="-1152.55" font-family="monospace" font-size="10.00">pub fn</text>
<polyline fill="none" stroke="black" points="1446.66,-1145.55 1751.66,-1145.55 "/>
<text text-anchor="middle" x="1599.16" y="-1133.55" font-family="monospace" font-size="10.00">rust_analyzer_test::helper::utils::format_string</text>
</g>
<!-- rust_analyzer_test::helper::utils&#45;&gt;rust_analyzer_test::helper::utils::format_string -->
<g id="edge36" class="edge">
<title>rust_analyzer_test::helper::utils&#45;&gt;rust_analyzer_test::helper::utils::format_string</title>
<path fill="none" stroke="#000000" d="M1271.1,-1149.22C1320.93,-1148.66 1381.19,-1147.99 1436.39,-1147.37"/>
<polygon fill="#000000" stroke="#000000" points="1436.68,-1150.86 1446.64,-1147.25 1436.6,-1143.87 1436.68,-1150.86"/>
<text text-anchor="middle" x="1341.25" y="-1151.29" font-family="monospace" font-size="10.00">owns</text>
</g>
<!-- rust_analyzer_test::helper::utils::print_message -->
<g id="node22" class="node">
<title>rust_analyzer_test::helper::utils::print_message</title>
<polygon fill="#81c169" stroke="black" points="1266.28,-1328.37 1266.28,-1366.37 1571.28,-1366.37 1571.28,-1328.37 1266.28,-1328.37"/>
<text text-anchor="middle" x="1418.78" y="-1354.37" font-family="monospace" font-size="10.00">pub fn</text>
<polyline fill="none" stroke="black" points="1266.28,-1347.37 1571.28,-1347.37 "/>
<text text-anchor="middle" x="1418.78" y="-1335.37" font-family="monospace" font-size="10.00">rust_analyzer_test::helper::utils::print_message</text>
</g>
<!-- rust_analyzer_test::helper::utils&#45;&gt;rust_analyzer_test::helper::utils::print_message -->
<g id="edge37" class="edge">
<title>rust_analyzer_test::helper::utils&#45;&gt;rust_analyzer_test::helper::utils::print_message</title>
<path fill="none" stroke="#000000" d="M1188.34,-1169.67C1234.71,-1205.42 1334.14,-1282.1 1385.91,-1322.02"/>
<polygon fill="#000000" stroke="#000000" points="1384.04,-1325 1394.1,-1328.34 1388.32,-1319.46 1384.04,-1325"/>
<text text-anchor="middle" x="1274.62" y="-1248.84" font-family="monospace" font-size="10.00">owns</text>
</g>
<!-- rust_analyzer_test::helper::utils::format_string&#45;&gt;alloc::string::String -->
<g id="edge38" class="edge">
<title>rust_analyzer_test::helper::utils::format_string&#45;&gt;alloc::string::String</title>
<path fill="none" stroke="#7f7f7f" stroke-dasharray="5,2" d="M1597.87,-1126.46C1593.75,-1065.34 1580.86,-874.21 1575.88,-800.45"/>
<polygon fill="#7f7f7f" stroke="#7f7f7f" points="1579.35,-799.79 1575.18,-790.05 1572.36,-800.26 1579.35,-799.79"/>
<text text-anchor="middle" x="1574.38" y="-966.45" font-family="monospace" font-size="10.00">uses</text>
</g>
<!-- rust_analyzer_test::helper::utils::format_string&#45;&gt;str -->
<g id="edge39" class="edge">
<title>rust_analyzer_test::helper::utils::format_string&#45;&gt;str</title>
<path fill="none" stroke="#7f7f7f" stroke-dasharray="5,2" d="M1570.63,-1126.24C1528.57,-1097.77 1449.9,-1044.52 1403.47,-1013.09"/>
<polygon fill="#7f7f7f" stroke="#7f7f7f" points="1405.16,-1010.01 1394.92,-1007.3 1401.24,-1015.81 1405.16,-1010.01"/>
<text text-anchor="middle" x="1474.55" y="-1072.67" font-family="monospace" font-size="10.00">uses</text>
</g>
<!-- u32 -->
<g id="node24" class="node">
<title>u32</title>
<polygon fill="#81c169" stroke="black" points="1797.43,-1315.35 1797.43,-1353.35 1910.43,-1353.35 1910.43,-1315.35 1797.43,-1315.35"/>
<text text-anchor="middle" x="1853.93" y="-1341.35" font-family="monospace" font-size="10.00">external builtin</text>
<polyline fill="none" stroke="black" points="1797.43,-1334.35 1910.43,-1334.35 "/>
<text text-anchor="middle" x="1853.93" y="-1322.35" font-family="monospace" font-size="10.00">u32</text>
</g>
<!-- rust_analyzer_test::helper::utils::format_string&#45;&gt;u32 -->
<g id="edge40" class="edge">
<title>rust_analyzer_test::helper::utils::format_string&#45;&gt;u32</title>
<path fill="none" stroke="#7f7f7f" stroke-dasharray="5,2" d="M1624.99,-1164.69C1671.24,-1198.97 1768.19,-1270.81 1819.84,-1309.09"/>
<polygon fill="#7f7f7f" stroke="#7f7f7f" points="1817.91,-1312.01 1828.03,-1315.15 1822.08,-1306.39 1817.91,-1312.01"/>
<text text-anchor="middle" x="1709.92" y="-1239.89" font-family="monospace" font-size="10.00">uses</text>
</g>
<!-- usize -->
<g id="node25" class="node">
<title>usize</title>
<polygon fill="#81c169" stroke="black" points="1567.43,-1534.7 1567.43,-1572.7 1680.43,-1572.7 1680.43,-1534.7 1567.43,-1534.7"/>
<text text-anchor="middle" x="1623.93" y="-1560.7" font-family="monospace" font-size="10.00">external builtin</text>
<polyline fill="none" stroke="black" points="1567.43,-1553.7 1680.43,-1553.7 "/>
<text text-anchor="middle" x="1623.93" y="-1541.7" font-family="monospace" font-size="10.00">usize</text>
</g>
<!-- rust_analyzer_test::helper::utils::format_string&#45;&gt;usize -->
<g id="edge41" class="edge">
<title>rust_analyzer_test::helper::utils::format_string&#45;&gt;usize</title>
<path fill="none" stroke="#7f7f7f" stroke-dasharray="5,2" d="M1600.32,-1164.68C1604.29,-1230.16 1617.36,-1445.52 1622.15,-1524.41"/>
<polygon fill="#7f7f7f" stroke="#7f7f7f" points="1618.67,-1524.83 1622.77,-1534.6 1625.66,-1524.41 1618.67,-1524.83"/>
<text text-anchor="middle" x="1598.74" y="-1347.55" font-family="monospace" font-size="10.00">uses</text>
</g>
<!-- rust_analyzer_test::helper::utils::print_message&#45;&gt;str -->
<g id="edge42" class="edge">
<title>rust_analyzer_test::helper::utils::print_message&#45;&gt;str</title>
<path fill="none" stroke="#7f7f7f" stroke-dasharray="5,2" d="M1415.97,-1328.05C1407.34,-1268.71 1381.17,-1088.8 1370.81,-1017.57"/>
<polygon fill="#7f7f7f" stroke="#7f7f7f" points="1374.25,-1016.89 1369.34,-1007.5 1367.32,-1017.89 1374.25,-1016.89"/>
<text text-anchor="middle" x="1380.89" y="-1175.81" font-family="monospace" font-size="10.00">uses</text>
</g>
<!-- rust_analyzer_test::helper::utils::print_message&#45;&gt;u32 -->
<g id="edge43" class="edge">
<title>rust_analyzer_test::helper::utils::print_message&#45;&gt;u32</title>
<path fill="none" stroke="#7f7f7f" stroke-dasharray="5,2" d="M1571.58,-1342.79C1645.4,-1340.59 1730.15,-1338.05 1787.38,-1336.34"/>
<polygon fill="#7f7f7f" stroke="#7f7f7f" points="1787.5,-1339.84 1797.39,-1336.04 1787.29,-1332.84 1787.5,-1339.84"/>
<text text-anchor="middle" x="1666.98" y="-1342.57" font-family="monospace" font-size="10.00">uses</text>
</g>
<!-- rust_analyzer_test::helper::utils::print_message&#45;&gt;usize -->
<g id="edge44" class="edge">
<title>rust_analyzer_test::helper::utils::print_message&#45;&gt;usize</title>
<path fill="none" stroke="#7f7f7f" stroke-dasharray="5,2" d="M1437.71,-1366.41C1474.49,-1403.39 1555.64,-1485.02 1597.63,-1527.24"/>
<polygon fill="#7f7f7f" stroke="#7f7f7f" points="1595.21,-1529.78 1604.75,-1534.4 1600.18,-1524.84 1595.21,-1529.78"/>
<text text-anchor="middle" x="1505.17" y="-1449.82" font-family="monospace" font-size="10.00">uses</text>
</g>
</g>
</svg>
